<svg xmlns="http://www.w3.org/2000/svg" xmlns:xlink="http://www.w3.org/1999/xlink" width="1920" zoomAndPan="magnify" viewBox="0 0 1440 809.999993" height="1080" preserveAspectRatio="xMidYMid meet" version="1.0"><defs><g/></defs><rect x="-144" width="1728" fill="#ffffff" y="-80.999999" height="971.999992" fill-opacity="1"/><rect x="-144" width="1728" fill="#ffffff" y="-80.999999" height="971.999992" fill-opacity="1"/><g fill="#3ab1c1" fill-opacity="1"><g transform="translate(333.823994, 458.249997)"><g><path d="M 44.09375 1.421875 C 37.195312 1.421875 31.0625 0.570312 25.6875 -1.125 C 20.3125 -2.820312 15.832031 -5.050781 12.25 -7.8125 C 8.664062 -10.582031 5.921875 -13.625 4.015625 -16.9375 L 14.828125 -30.140625 L 16.53125 -30.140625 C 19.53125 -25.691406 23.332031 -22.148438 27.9375 -19.515625 C 32.539062 -16.890625 37.925781 -15.578125 44.09375 -15.578125 C 49.351562 -15.578125 53.320312 -16.6875 56 -18.90625 C 58.675781 -21.132812 60.015625 -24.203125 60.015625 -28.109375 C 60.015625 -30.460938 59.582031 -32.429688 58.71875 -34.015625 C 57.863281 -35.609375 56.4375 -36.972656 54.4375 -38.109375 C 52.4375 -39.242188 49.738281 -40.21875 46.34375 -41.03125 L 33.546875 -43.953125 C 24.609375 -45.992188 17.953125 -49.382812 13.578125 -54.125 C 9.203125 -58.863281 7.015625 -65.023438 7.015625 -72.609375 C 7.015625 -78.234375 8.421875 -83.175781 11.234375 -87.4375 C 14.046875 -91.707031 18.140625 -95.019531 23.515625 -97.375 C 28.890625 -99.726562 35.316406 -100.90625 42.796875 -100.90625 C 50.460938 -100.90625 57.03125 -99.894531 62.5 -97.875 C 67.96875 -95.863281 72.582031 -92.769531 76.34375 -88.59375 L 66.625 -75.265625 L 64.921875 -75.265625 C 62.109375 -78.210938 58.882812 -80.421875 55.25 -81.890625 C 51.625 -83.367188 47.472656 -84.109375 42.796875 -84.109375 C 37.398438 -84.109375 33.296875 -83.15625 30.484375 -81.25 C 27.671875 -79.34375 26.265625 -76.710938 26.265625 -73.359375 C 26.265625 -70.222656 27.25 -67.722656 29.21875 -65.859375 C 31.195312 -64.003906 34.613281 -62.554688 39.46875 -61.515625 L 52.53125 -58.796875 C 62.195312 -56.753906 69.207031 -53.289062 73.5625 -48.40625 C 77.914062 -43.53125 80.09375 -37.171875 80.09375 -29.328125 C 80.09375 -23.109375 78.753906 -17.695312 76.078125 -13.09375 C 73.398438 -8.488281 69.359375 -4.914062 63.953125 -2.375 C 58.554688 0.15625 51.9375 1.421875 44.09375 1.421875 Z M 44.09375 1.421875 "/></g></g></g><g fill="#3ab1c1" fill-opacity="1"><g transform="translate(419.290481, 458.249997)"><g><path d="M 43.75 1.421875 C 36.488281 1.421875 30.066406 -0.0820312 24.484375 -3.09375 C 18.910156 -6.113281 14.554688 -10.546875 11.421875 -16.390625 C 8.296875 -22.242188 6.734375 -29.28125 6.734375 -37.5 C 6.734375 -45.75 8.296875 -52.800781 11.421875 -58.65625 C 14.554688 -64.507812 18.890625 -68.941406 24.421875 -71.953125 C 29.960938 -74.972656 36.289062 -76.484375 43.40625 -76.484375 C 59.238281 -76.484375 69.378906 -70.742188 73.828125 -59.265625 L 60.90625 -50.015625 L 59.46875 -50.015625 C 57.925781 -53.554688 55.914062 -56.1875 53.4375 -57.90625 C 50.96875 -59.632812 47.625 -60.5 43.40625 -60.5 C 37.96875 -60.5 33.726562 -58.613281 30.6875 -54.84375 C 27.644531 -51.082031 26.125 -45.300781 26.125 -37.5 C 26.125 -29.78125 27.664062 -24.023438 30.75 -20.234375 C 33.84375 -16.453125 38.175781 -14.5625 43.75 -14.5625 C 47.832031 -14.5625 51.289062 -15.660156 54.125 -17.859375 C 56.96875 -20.054688 59 -23.222656 60.21875 -27.359375 L 61.65625 -27.484375 L 75.0625 -20.140625 C 73.15625 -13.785156 69.625 -8.601562 64.46875 -4.59375 C 59.320312 -0.582031 52.414062 1.421875 43.75 1.421875 Z M 43.75 1.421875 "/></g></g></g><g fill="#3ab1c1" fill-opacity="1"><g transform="translate(496.659427, 458.249997)"><g><path d="M 34.359375 1.421875 C 25.921875 1.421875 19.691406 -0.878906 15.671875 -5.484375 C 11.660156 -10.085938 9.65625 -16.695312 9.65625 -25.3125 L 9.65625 -75.0625 L 28.515625 -75.0625 L 28.515625 -27.6875 C 28.515625 -23.113281 29.5 -19.769531 31.46875 -17.65625 C 33.445312 -15.550781 36.5 -14.5 40.625 -14.5 C 45.84375 -14.5 49.898438 -16.207031 52.796875 -19.625 C 55.703125 -23.050781 57.15625 -28.441406 57.15625 -35.796875 L 57.15625 -75.0625 L 76.015625 -75.0625 L 76.015625 0 L 57.90625 0 L 57.90625 -11.03125 L 56.484375 -11.359375 C 54.078125 -7.054688 51.140625 -3.847656 47.671875 -1.734375 C 44.203125 0.367188 39.765625 1.421875 34.359375 1.421875 Z M 34.359375 1.421875 "/></g></g></g><g fill="#3ab1c1" fill-opacity="1"><g transform="translate(583.486846, 458.249997)"><g><path d="M 31.171875 1.421875 C 24.410156 1.421875 19.25 -0.398438 15.6875 -4.046875 C 12.125 -7.703125 10.34375 -13.25 10.34375 -20.6875 L 10.34375 -105.203125 L 29.1875 -105.203125 L 29.1875 -21.4375 C 29.1875 -16.851562 31.09375 -14.5625 34.90625 -14.5625 C 36 -14.5625 37.15625 -14.742188 38.375 -15.109375 L 39.328125 -14.828125 L 41.03125 -0.34375 C 39.988281 0.195312 38.601562 0.625 36.875 0.9375 C 35.15625 1.257812 33.253906 1.421875 31.171875 1.421875 Z M 31.171875 1.421875 "/></g></g></g><g fill="#3ab1c1" fill-opacity="1"><g transform="translate(626.628369, 458.249997)"><g><path d="M 10.8125 30.421875 L 10.8125 -75.0625 L 29.671875 -75.0625 L 29.671875 -65.25 L 31.09375 -64.984375 C 33.320312 -68.796875 36.296875 -71.664062 40.015625 -73.59375 C 43.734375 -75.519531 48.085938 -76.484375 53.078125 -76.484375 C 59.109375 -76.484375 64.378906 -75.050781 68.890625 -72.1875 C 73.410156 -69.332031 76.925781 -64.988281 79.4375 -59.15625 C 81.957031 -53.332031 83.21875 -46.113281 83.21875 -37.5 C 83.21875 -28.925781 81.890625 -21.734375 79.234375 -15.921875 C 76.585938 -10.117188 72.90625 -5.773438 68.1875 -2.890625 C 63.46875 -0.015625 58.019531 1.421875 51.84375 1.421875 C 47.175781 1.421875 43.140625 0.640625 39.734375 -0.921875 C 36.335938 -2.484375 33.457031 -4.921875 31.09375 -8.234375 L 29.671875 -7.96875 L 29.671875 30.421875 Z M 46.609375 -14.5625 C 52.234375 -14.5625 56.5 -16.394531 59.40625 -20.0625 C 62.3125 -23.738281 63.765625 -29.550781 63.765625 -37.5 C 63.765625 -45.4375 62.3125 -51.253906 59.40625 -54.953125 C 56.5 -58.648438 52.234375 -60.5 46.609375 -60.5 C 41.347656 -60.5 37.175781 -58.59375 34.09375 -54.78125 C 31.007812 -50.96875 29.46875 -45.207031 29.46875 -37.5 C 29.46875 -29.832031 31.007812 -24.09375 34.09375 -20.28125 C 37.175781 -16.46875 41.347656 -14.5625 46.609375 -14.5625 Z M 46.609375 -14.5625 "/></g></g></g><g fill="#3ab1c1" fill-opacity="1"><g transform="translate(716.517883, 458.249997)"><g><path d="M 51.78125 -17.890625 L 56.6875 -3.953125 C 54.644531 -2.265625 52.078125 -0.945312 48.984375 0 C 45.898438 0.945312 42.410156 1.421875 38.515625 1.421875 C 30.390625 1.421875 24.21875 -0.785156 20 -5.203125 C 15.78125 -9.628906 13.671875 -16.0625 13.671875 -24.5 L 13.671875 -60.15625 L 2.25 -60.15625 L 2.25 -75.125 L 13.671875 -75.125 L 13.671875 -89.75 L 32.53125 -92.8125 L 32.53125 -75.125 L 53.828125 -75.125 L 53.828125 -60.15625 L 32.53125 -60.15625 L 32.53125 -25.859375 C 32.53125 -22.140625 33.300781 -19.425781 34.84375 -17.71875 C 36.382812 -16.019531 38.628906 -15.171875 41.578125 -15.171875 C 44.929688 -15.171875 47.859375 -16.078125 50.359375 -17.890625 Z M 51.78125 -17.890625 "/></g></g></g><g fill="#58b46a" fill-opacity="1"><g transform="translate(774.83569, 458.249997)"><g><path d="M 44.09375 1.421875 C 37.195312 1.421875 31.0625 0.570312 25.6875 -1.125 C 20.3125 -2.820312 15.832031 -5.050781 12.25 -7.8125 C 8.664062 -10.582031 5.921875 -13.625 4.015625 -16.9375 L 14.828125 -30.140625 L 16.53125 -30.140625 C 19.53125 -25.691406 23.332031 -22.148438 27.9375 -19.515625 C 32.539062 -16.890625 37.925781 -15.578125 44.09375 -15.578125 C 49.351562 -15.578125 53.320312 -16.6875 56 -18.90625 C 58.675781 -21.132812 60.015625 -24.203125 60.015625 -28.109375 C 60.015625 -30.460938 59.582031 -32.429688 58.71875 -34.015625 C 57.863281 -35.609375 56.4375 -36.972656 54.4375 -38.109375 C 52.4375 -39.242188 49.738281 -40.21875 46.34375 -41.03125 L 33.546875 -43.953125 C 24.609375 -45.992188 17.953125 -49.382812 13.578125 -54.125 C 9.203125 -58.863281 7.015625 -65.023438 7.015625 -72.609375 C 7.015625 -78.234375 8.421875 -83.175781 11.234375 -87.4375 C 14.046875 -91.707031 18.140625 -95.019531 23.515625 -97.375 C 28.890625 -99.726562 35.316406 -100.90625 42.796875 -100.90625 C 50.460938 -100.90625 57.03125 -99.894531 62.5 -97.875 C 67.96875 -95.863281 72.582031 -92.769531 76.34375 -88.59375 L 66.625 -75.265625 L 64.921875 -75.265625 C 62.109375 -78.210938 58.882812 -80.421875 55.25 -81.890625 C 51.625 -83.367188 47.472656 -84.109375 42.796875 -84.109375 C 37.398438 -84.109375 33.296875 -83.15625 30.484375 -81.25 C 27.671875 -79.34375 26.265625 -76.710938 26.265625 -73.359375 C 26.265625 -70.222656 27.25 -67.722656 29.21875 -65.859375 C 31.195312 -64.003906 34.613281 -62.554688 39.46875 -61.515625 L 52.53125 -58.796875 C 62.195312 -56.753906 69.207031 -53.289062 73.5625 -48.40625 C 77.914062 -43.53125 80.09375 -37.171875 80.09375 -29.328125 C 80.09375 -23.109375 78.753906 -17.695312 76.078125 -13.09375 C 73.398438 -8.488281 69.359375 -4.914062 63.953125 -2.375 C 58.554688 0.15625 51.9375 1.421875 44.09375 1.421875 Z M 44.09375 1.421875 "/></g></g></g><g fill="#58b46a" fill-opacity="1"><g transform="translate(860.302178, 458.249997)"><g><path d="M 16.609375 31.84375 C 13.378906 31.84375 10.460938 31.59375 7.859375 31.09375 C 5.253906 30.59375 3.132812 29.9375 1.5 29.125 L 4.484375 13.875 L 5.71875 13.46875 C 6.851562 14.0625 8.257812 14.539062 9.9375 14.90625 C 11.613281 15.269531 13.335938 15.453125 15.109375 15.453125 C 18.148438 15.453125 20.675781 15.050781 22.6875 14.25 C 24.707031 13.457031 26.421875 12.140625 27.828125 10.296875 C 29.234375 8.460938 30.484375 5.914062 31.578125 2.65625 L 1.640625 -75.0625 L 21.359375 -75.0625 L 40.015625 -22.859375 L 41.640625 -22.859375 L 59.8125 -75.0625 L 79 -75.0625 L 48.859375 4.6875 C 46.453125 11.132812 43.804688 16.316406 40.921875 20.234375 C 38.046875 24.160156 34.644531 27.078125 30.71875 28.984375 C 26.800781 30.890625 22.097656 31.84375 16.609375 31.84375 Z M 16.609375 31.84375 "/></g></g></g><g fill="#58b46a" fill-opacity="1"><g transform="translate(940.869313, 458.249997)"><g><path d="M 10.8125 0 L 10.8125 -75.0625 L 28.921875 -75.0625 L 28.921875 -64.03125 L 30.34375 -63.6875 C 35.019531 -72.21875 42.597656 -76.484375 53.078125 -76.484375 C 61.742188 -76.484375 68.101562 -74.125 72.15625 -69.40625 C 76.21875 -64.6875 78.25 -57.816406 78.25 -48.796875 L 78.25 0 L 59.40625 0 L 59.40625 -46.46875 C 59.40625 -51.457031 58.40625 -55.050781 56.40625 -57.25 C 54.414062 -59.457031 51.21875 -60.5625 46.8125 -60.5625 C 41.414062 -60.5625 37.207031 -58.8125 34.1875 -55.3125 C 31.175781 -51.820312 29.671875 -46.335938 29.671875 -38.859375 L 29.671875 0 Z M 10.8125 0 "/></g></g></g><g fill="#58b46a" fill-opacity="1"><g transform="translate(1028.785477, 458.249997)"><g><path d="M 43.75 1.421875 C 36.488281 1.421875 30.066406 -0.0820312 24.484375 -3.09375 C 18.910156 -6.113281 14.554688 -10.546875 11.421875 -16.390625 C 8.296875 -22.242188 6.734375 -29.28125 6.734375 -37.5 C 6.734375 -45.75 8.296875 -52.800781 11.421875 -58.65625 C 14.554688 -64.507812 18.890625 -68.941406 24.421875 -71.953125 C 29.960938 -74.972656 36.289062 -76.484375 43.40625 -76.484375 C 59.238281 -76.484375 69.378906 -70.742188 73.828125 -59.265625 L 60.90625 -50.015625 L 59.46875 -50.015625 C 57.925781 -53.554688 55.914062 -56.1875 53.4375 -57.90625 C 50.96875 -59.632812 47.625 -60.5 43.40625 -60.5 C 37.96875 -60.5 33.726562 -58.613281 30.6875 -54.84375 C 27.644531 -51.082031 26.125 -45.300781 26.125 -37.5 C 26.125 -29.78125 27.664062 -24.023438 30.75 -20.234375 C 33.84375 -16.453125 38.175781 -14.5625 43.75 -14.5625 C 47.832031 -14.5625 51.289062 -15.660156 54.125 -17.859375 C 56.96875 -20.054688 59 -23.222656 60.21875 -27.359375 L 61.65625 -27.484375 L 75.0625 -20.140625 C 73.15625 -13.785156 69.625 -8.601562 64.46875 -4.59375 C 59.320312 -0.582031 52.414062 1.421875 43.75 1.421875 Z M 43.75 1.421875 "/></g></g></g></svg>