<svg xmlns="http://www.w3.org/2000/svg" xmlns:xlink="http://www.w3.org/1999/xlink" width="1920" zoomAndPan="magnify" viewBox="0 0 1440 809.999993" height="1080" preserveAspectRatio="xMidYMid meet" version="1.0"><defs><clipPath id="326c709b30"><path d="M 560 243 L 879 243 L 879 568 L 560 568 Z M 560 243 " clip-rule="nonzero"/></clipPath><clipPath id="ddfce6b06b"><path d="M 468.265625 399.050781 L 726.050781 153.164062 L 971.941406 410.945312 L 714.15625 656.835938 Z M 468.265625 399.050781 " clip-rule="nonzero"/></clipPath><clipPath id="5658758f8e"><path d="M 468.265625 399.050781 L 726.050781 153.164062 L 971.941406 410.945312 L 714.15625 656.835938 Z M 468.265625 399.050781 " clip-rule="nonzero"/></clipPath><clipPath id="c74e06ac64"><path d="M 468.265625 399.050781 L 726.050781 153.164062 L 971.941406 410.945312 L 714.15625 656.835938 Z M 468.265625 399.050781 " clip-rule="nonzero"/></clipPath><clipPath id="c4f204a29b"><path d="M 557 246 L 883 246 L 883 564 L 557 564 Z M 557 246 " clip-rule="nonzero"/></clipPath><clipPath id="87ac12a524"><path d="M 468.265625 399.050781 L 726.050781 153.164062 L 971.941406 410.945312 L 714.15625 656.835938 Z M 468.265625 399.050781 " clip-rule="nonzero"/></clipPath><clipPath id="67ce761c00"><path d="M 468.265625 399.050781 L 726.050781 153.164062 L 971.941406 410.945312 L 714.15625 656.835938 Z M 468.265625 399.050781 " clip-rule="nonzero"/></clipPath><clipPath id="bd4eba32d7"><path d="M 468.265625 399.050781 L 726.050781 153.164062 L 971.941406 410.945312 L 714.15625 656.835938 Z M 468.265625 399.050781 " clip-rule="nonzero"/></clipPath></defs><rect x="-144" width="1728" fill="#ffffff" y="-80.999999" height="971.999992" fill-opacity="1"/><rect x="-144" width="1728" fill="#ffffff" y="-80.999999" height="971.999992" fill-opacity="1"/><g clip-path="url(#326c709b30)"><g clip-path="url(#ddfce6b06b)"><g clip-path="url(#5658758f8e)"><g clip-path="url(#c74e06ac64)"><path fill="#3ab1c1" d="M 574.425781 297.765625 L 618.945312 255.300781 C 636.609375 238.449219 664.890625 239.160156 681.703125 256.785156 L 706.738281 283.03125 L 680.722656 307.847656 L 660.453125 286.597656 C 654.40625 280.257812 644.199219 280.054688 637.890625 286.070312 L 604.257812 318.148438 C 597.914062 324.203125 597.679688 334.367188 603.726562 340.707031 L 646.722656 385.78125 C 659.035156 398.691406 657.953125 399.078125 675.375 395.4375 L 764.015625 377.214844 C 788.429688 372.101562 789.351562 369.640625 805.574219 386.648438 L 821.519531 403.367188 L 866.300781 450.3125 C 883.140625 467.96875 882.484375 496.238281 864.828125 513.078125 L 820.3125 555.542969 C 802.671875 572.371094 774.394531 571.71875 757.542969 554.050781 L 732.515625 527.8125 L 758.53125 503 L 778.800781 524.25 C 784.824219 530.566406 795.011719 530.824219 801.351562 524.777344 L 834.984375 492.695312 C 841.324219 486.648438 841.5625 476.46875 835.527344 470.136719 L 791.933594 424.4375 C 779.558594 411.460938 780.449219 411.949219 762.898438 415.632812 L 662.707031 436.6875 C 649.472656 439.445312 643.441406 434.429688 634.625 425.1875 L 617.726562 407.472656 L 572.945312 360.523438 C 556.09375 342.859375 556.761719 314.617188 574.425781 297.765625 " fill-opacity="1" fill-rule="evenodd"/></g></g></g></g><g clip-path="url(#c4f204a29b)"><g clip-path="url(#87ac12a524)"><g clip-path="url(#67ce761c00)"><g clip-path="url(#bd4eba32d7)"><path fill="#58b46a" d="M 694.363281 372.777344 L 691.851562 360.566406 C 686.738281 336.152344 684.277344 335.230469 701.285156 319.007812 L 718.003906 303.0625 L 764.949219 258.28125 C 782.605469 241.441406 810.878906 242.101562 827.726562 259.765625 L 870.183594 304.277344 C 887.003906 321.910156 886.359375 350.191406 868.691406 367.042969 L 842.453125 392.070312 L 817.640625 366.058594 L 838.890625 345.785156 C 845.207031 339.761719 845.460938 329.570312 839.414062 323.230469 L 807.332031 289.597656 C 801.296875 283.269531 791.109375 283.023438 784.78125 289.058594 L 739.078125 332.652344 C 726.101562 345.027344 726.585938 344.132812 730.269531 361.683594 L 730.988281 365.078125 M 612.402344 550.167969 L 569.941406 505.652344 C 553.085938 487.984375 553.792969 459.695312 571.421875 442.882812 L 597.664062 417.847656 L 622.484375 443.867188 L 601.238281 464.132812 C 594.898438 470.179688 594.691406 480.382812 600.707031 486.691406 L 632.789062 520.324219 C 638.832031 526.660156 649.003906 526.914062 655.347656 520.859375 L 700.421875 477.867188 C 713.179688 465.699219 713.710938 466.613281 710.203125 449.832031 L 747.191406 442.214844 L 751.320312 461.878906 C 754.074219 475.113281 749.066406 481.152344 739.824219 489.96875 L 722.117188 506.859375 L 675.164062 551.644531 C 657.5 568.492188 629.253906 567.832031 612.402344 550.167969 Z M 612.402344 550.167969 " fill-opacity="1" fill-rule="evenodd"/></g></g></g></g></svg>